<svg width="144" height="144" viewBox="0 0 144 144" fill="none" xmlns="http://www.w3.org/2000/svg">
<g clip-path="url(#clip0_108_396)">
<path fill-rule="evenodd" clip-rule="evenodd" d="M112.455 53.0368C115.488 56.0788 127.656 43.8928 124.623 40.8688L97.776 14.0129C94.734 10.9709 82.566 23.1569 85.59 26.1809L112.455 53.0368Z" fill="white"/>
<path fill-rule="evenodd" clip-rule="evenodd" d="M29.592 98.0729C27.648 96.1199 23.373 97.2179 20.07 100.512C16.767 103.824 15.678 108.081 17.631 110.052L29.097 121.509C31.05 123.471 35.298 122.373 38.601 119.07C41.922 115.776 43.011 111.492 41.058 109.548L29.592 98.0729Z" fill="white"/>
<path d="M29.4744 -2.8552L-2.11411 28.7244L10.3192 41.1612L41.9077 9.58162L29.4744 -2.8552Z" fill="white"/>
<path fill-rule="evenodd" clip-rule="evenodd" d="M108.792 75.366L95.913 88.218L89.262 81.567L103.887 66.951C106.326 64.512 106.29 60.507 103.779 58.023L81.279 35.532C78.813 33.057 74.826 33.03 72.387 35.451L57.771 50.076L51.156 43.461L64.017 30.609L51.462 18.063L19.989 49.527L32.526 62.073L45.252 49.356L51.867 55.971L37.206 70.641C34.776 73.08 34.794 77.076 37.269 79.542L59.769 102.024C62.253 104.508 66.267 104.553 68.688 102.114L83.358 87.453L90.009 94.104L77.265 106.821L89.703 119.25L121.176 87.777L108.792 75.366Z" fill="white"/>
<path d="M130.156 91.9786L98.5716 123.626L111.185 136.214L142.769 104.567L130.156 91.9786Z" fill="white"/>
</g>
<defs>
<clipPath id="clip0_108_396">
<rect width="144" height="144" fill="white"/>
</clipPath>
</defs>
</svg>
